<svg class="refill-window__payment-icon" viewBox="0 0 140 80" fill="none" xml:space="preserve" xmlns="http://www.w3.org/2000/svg"><g style="fill:none"><path d="M352.6 357.3c-4.3 17.1-21.6 27.6-38.8 23.3-17.1-4.3-27.6-21.6-23.3-38.8 4.3-17.1 21.6-27.6 38.8-23.3 17.2 4.2 27.6 21.6 23.3 38.8z" fill="#f7931a" transform="matrix(.35921 0 0 .35925 -75.34 -100.37)" style="display:inline"/><path d="M335.7 345c.6-4.3-2.6-6.5-7-8.1l1.4-5.8-3.5-.9-1.4 5.6c-.9-.2-1.9-.4-2.8-.7l1.4-5.7-3.5-.9-1.4 5.8c-.8-.2-1.5-.3-2.2-.5l-4.8-1.2-.9 3.8s2.6.6 2.5.6c1.4.4 1.7 1.3 1.6 2l-1.6 6.6c.1 0 .2.1.4.1-.1 0-.2-.1-.4-.1l-2.3 9.2c-.2.4-.6 1.1-1.6.8 0 .1-2.6-.6-2.6-.6l-1.7 4 4.6 1.1c.9.2 1.7.4 2.5.6l-1.5 5.8 3.5.9 1.4-5.8c1 .3 1.9.5 2.8.7l-1.4 5.7 3.5.9 1.5-5.8c6 1.1 10.5.7 12.4-4.7 1.5-4.4-.1-6.9-3.2-8.5 2.1-.3 3.8-1.8 4.3-4.9zm-8 11.2c-1.1 4.4-8.4 2-10.8 1.4l1.9-7.7c2.4.6 10 1.8 8.9 6.3zm1.1-11.3c-1 4-7.1 2-9.1 1.5l1.7-7c2 .4 8.4 1.3 7.4 5.5z" transform="matrix(.35921 0 0 .35925 -75.34 -100.37)" style="fill:#fff"/><g transform="translate(-5.631 29.136) scale(1.24209)"><circle cx="60.89" cy="-3.179" r="9.259" fill="#627eea" style="fill-rule:evenodd;stroke-width:.578704"/><g fill="#fff"><path fill-opacity=".602" d="M61.178-10.123v5.133l4.339 1.938z"/><path d="M61.178-10.123 56.84-3.052l4.34-1.938z"/><path fill-opacity=".602" d="M61.178.275v3.488l4.342-6.007z"/><path d="M61.178 3.763V.274L56.84-2.244z"/><path fill-opacity=".2" d="m61.178-.532 4.339-2.52-4.339-1.937z"/><path fill-opacity=".602" d="m56.84-3.052 4.338 2.52V-4.99z"/></g></g><g><path d="M87.799 12.38a9.26 9.26 0 1 0 0-18.518 9.26 9.26 0 0 0 0 18.518z" fill="#0098ea" style="stroke-width:.330688" transform="translate(-9.221 21.311) scale(1.24209)"/><path d="M90.96-.97h-6.323c-1.163 0-1.9 1.254-1.315 2.267l3.903 6.765a.663.663 0 0 0 1.147 0l3.904-6.765C92.86.285 92.123-.97 90.96-.97zm-3.738 7.003-.85-1.645-2.05-3.667a.358.358 0 0 1 .314-.536h2.585v5.849zM91.275.72l-2.05 3.67-.85 1.643V.184h2.585c.283 0 .45.301.315.536z" fill="#fff" style="stroke-width:.330688" transform="translate(-9.221 21.311) scale(1.24209)"/></g><g><g style="fill:none"><path d="M9.916-12.215a9.248 9.248 0 1 0 0-18.496 9.248 9.248 0 0 0 0 18.496z" fill="#26a17b" style="stroke-width:.5466" transform="translate(57.669 81.457) scale(1.24357)"/><path d="M10.902-20.61v-.001c-.064.004-.394.023-1.128.023-.588 0-1-.016-1.145-.023v.001c-2.259-.1-3.943-.492-3.943-.963 0-.47 1.686-.864 3.943-.964V-21c.147.01.57.036 1.155.036.702 0 1.053-.03 1.118-.036v-1.534c2.254.1 3.934.493 3.934.963s-1.681.863-3.934.964zm0-2.084v-1.374h3.145v-2.095H5.485v2.095H8.63v1.374c-2.556.117-4.477.623-4.477 1.23 0 .606 1.923 1.111 4.477 1.23v4.404h2.274v-4.404c2.551-.117 4.47-.623 4.47-1.23 0-.604-1.919-1.111-4.47-1.229" fill="#fff" style="display:inline;stroke-width:.5466" transform="translate(57.669 81.457) scale(1.24357)"/></g><g transform="matrix(.7188 0 0 .7188 28.666 43.312)" style="fill:none"><circle fill="#ef0027" cx="16" cy="16" r="16"/><path d="M21.932 9.913 7.5 7.257l7.595 19.112 10.583-12.894zm-.232 1.17 2.208 2.099-6.038 1.093zm-5.142 2.973-6.364-5.278 10.402 1.914zm-.453.934-1.038 8.58L9.472 9.487l6.633 5.502zm.96.455 6.687-1.21-7.67 9.343z" fill="#fff"/></g><path fill="#bebebe" d="M97.058 27.977a9.26 9.26 0 1 1-18.518 0 9.26 9.26 0 0 1 18.518 0" style="stroke-width:.0562437" transform="translate(-9.221 20.039) scale(1.24209)"/><path fill="#bebebe" d="M95.092 27.978a7.294 7.294 0 1 1-14.587 0 7.294 7.294 0 0 1 14.587 0" style="stroke-width:.0562437" transform="translate(-9.221 20.039) scale(1.24209)"/><path fill="#fff" d="m87.258 30.451.601-2.265 1.424-.52.354-1.33-.012-.034-1.402.512 1.01-3.802H86.37l-1.32 4.962-1.103.403-.364 1.372 1.101-.402-.778 2.924h7.622l.489-1.82h-4.758" style="stroke-width:.0562437" transform="translate(-9.221 20.039) scale(1.24209)"/></g></g></svg>