<svg width="800" height="400" viewBox="0 0 780 501" xml:space="preserve" xmlns="http://www.w3.org/2000/svg"><path fill="#003087" d="M168.379 169.853c-8.399-5.774-19.359-8.668-32.88-8.668H83.153c-4.145 0-6.435 2.073-6.87 6.215L55.018 300.883c-.221 1.311.107 2.51.981 3.6.869 1.092 1.962 1.635 3.271 1.635h24.864c4.361 0 6.758-2.068 7.198-6.215l5.888-35.986c.215-1.744.982-3.162 2.291-4.254 1.308-1.09 2.944-1.803 4.907-2.13 1.963-.324 3.814-.487 5.562-.487 1.743 0 3.814.11 6.217.327 2.397.218 3.925.324 4.58.324 18.756 0 33.478-5.285 44.167-15.866 10.684-10.577 16.032-25.243 16.032-44.004 0-12.867-4.202-22.191-12.597-27.974zm-26.99 40.08c-1.094 7.635-3.926 12.649-8.506 15.049-4.581 2.403-11.124 3.598-19.629 3.598l-10.797.327 5.563-35.007c.434-2.397 1.851-3.597 4.252-3.597h6.218c8.72 0 15.049 1.257 18.975 3.761 3.924 2.51 5.233 7.801 3.924 15.869z" style="fill:#83afff;fill-opacity:1" transform="translate(6.916 -115.91) scale(.98376)"/><path fill="#009cde" d="M716.005 42.658H692.19c-2.366 0-3.759 1.18-4.184 3.541l-20.921 133.89-.323.643c0 1.078.43 2.092 1.29 3.058.854.964 1.93 1.447 3.217 1.447h21.244c4.07 0 6.325-2.034 6.76-6.114l20.92-131.64v-.32c-.002-3.003-1.4-4.505-4.188-4.505z"/><path fill="#003087" d="M428.31 213.856c0-1.088-.439-2.126-1.306-3.106-.875-.981-1.858-1.474-2.945-1.474h-25.192c-2.404 0-4.366 1.096-5.889 3.271l-34.679 51.04-14.395-49.075c-1.095-3.487-3.492-5.236-7.197-5.236h-24.541c-1.093 0-2.074.492-2.941 1.474-.875.98-1.309 2.019-1.309 3.106 0 .44 2.127 6.871 6.379 19.303 4.252 12.435 8.832 25.849 13.74 40.245 4.908 14.393 7.469 22.031 7.688 22.898-17.886 24.43-26.826 37.517-26.826 39.259 0 2.838 1.416 4.254 4.253 4.254h25.192c2.398 0 4.36-1.088 5.889-3.27l83.427-120.399c.434-.433.652-1.193.652-2.29z" style="fill:#83afff;fill-opacity:1" transform="translate(6.916 -115.91) scale(.98376)"/><path fill="#009cde" d="M659.039 89.968h-24.463c-3.005 0-4.824 3.542-5.467 10.623-5.585-8.58-15.771-12.876-30.579-12.876-15.449 0-28.594 5.795-39.426 17.381-10.837 11.587-16.253 25.215-16.253 40.876 0 12.662 3.7 22.746 11.102 30.253 7.403 7.515 17.326 11.265 29.775 11.265 6.22 0 12.55-1.29 18.986-3.862 6.438-2.575 11.476-6.006 15.13-10.3 0 .216-.219 1.18-.645 2.896-.433 1.72-.644 3.01-.644 3.862 0 3.438 1.39 5.15 4.185 5.15h22.21c4.07 0 6.434-2.035 7.076-6.115l13.197-84.003c.212-1.288-.11-2.466-.966-3.54-.86-1.072-1.93-1.61-3.218-1.61zm-42.001 63.406c-5.472 5.365-12.069 8.046-19.793 8.046-6.226 0-11.263-1.714-15.128-5.15-3.863-3.427-5.794-8.148-5.794-14.16 0-7.935 2.682-14.645 8.047-20.116 5.359-5.471 12.016-8.207 19.956-8.207 6.002 0 10.991 1.77 14.965 5.31 3.966 3.54 5.955 8.423 5.955 14.646 0 7.724-2.737 14.27-8.208 19.631z"/><path fill="#003087" d="M291.231 209.276h-24.865c-3.058 0-4.908 3.6-5.563 10.798-5.889-8.721-16.25-13.088-31.081-13.088-15.704 0-29.065 5.89-40.078 17.668-11.016 11.778-16.521 25.631-16.521 41.551 0 12.871 3.763 23.121 11.288 30.752 7.525 7.639 17.61 11.451 30.262 11.451 6.104 0 12.433-1.311 18.975-3.926 6.543-2.617 11.778-6.105 15.704-10.469-.875 2.617-1.309 4.908-1.309 6.869 0 3.494 1.417 5.234 4.253 5.234h22.574c4.141 0 6.543-2.068 7.198-6.215l13.413-85.39c.215-1.309-.111-2.507-.981-3.599-.873-1.089-1.963-1.636-3.269-1.636zm-42.696 64.615c-5.563 5.35-12.382 8.016-20.447 8.016-6.329 0-11.4-1.742-15.214-5.234-3.819-3.484-5.726-8.283-5.726-14.395 0-8.065 2.725-14.886 8.18-20.447 5.449-5.562 12.211-8.343 20.284-8.343 6.104 0 11.175 1.8 15.214 5.397 4.032 3.6 6.052 8.563 6.052 14.889 0 8.07-2.781 14.779-8.343 20.117z" style="fill:#83afff;fill-opacity:1" transform="translate(6.916 -115.91) scale(.98376)"/><path fill="#009cde" d="M538.183 51.185c-8.262-5.68-19.042-8.527-32.346-8.527h-51.174c-4.294 0-6.655 2.04-7.08 6.114l-20.92 131.315c-.218 1.29.104 2.47.964 3.542.852 1.074 1.93 1.608 3.218 1.608h26.39c2.575 0 4.29-1.393 5.15-4.183l5.795-37.332c.213-1.716.964-3.111 2.253-4.185 1.288-1.073 2.895-1.774 4.828-2.096 1.93-.318 3.751-.479 5.472-.479 1.715 0 3.752.108 6.113.322 2.36.214 3.866.319 4.506.319 18.454 0 32.935-5.2 43.45-15.609 10.514-10.405 15.771-24.833 15.771-43.29.001-12.657-4.132-21.83-12.39-27.519zm-32.99 52.946c-4.721 3.218-11.802 4.827-21.241 4.827l-10.3.321 5.472-34.438c.425-2.358 1.82-3.539 4.183-3.539h5.792c4.719 0 8.474.215 11.268.642 2.785.432 5.47 1.77 8.045 4.023 2.576 2.253 3.862 5.527 3.862 9.817 0 9.013-2.363 15.126-7.08 18.347z"/><g style="fill:none" transform="matrix(5.10158 0 0 5.10158 59.348 254.013)"><rect x=".5" y=".5" width="57" height="39" rx="3.5" fill="#006fcf" stroke="#f3f3f3"/><path fill-rule="evenodd" clip-rule="evenodd" d="M11.863 28.894v-8.235h9.324l1 1.22 1.034-1.22h33.842v7.667s-.885.56-1.908.568h-18.74l-1.128-1.298v1.298h-3.695v-2.216s-.505.31-1.597.31h-1.258v1.906h-5.595l-1-1.246-1.014 1.246zM1 14.453l2.098-4.584h3.628l1.19 2.568V9.869h4.51l.709 1.856.687-1.856h20.244v.933s1.064-.933 2.813-.933l6.568.022 1.17 2.534V9.869h3.774l1.039 1.456V9.869h3.809v8.235H49.43l-.995-1.46v1.46H42.89l-.558-1.298h-1.49l-.549 1.298h-3.76c-1.505 0-2.467-.914-2.467-.914v.914h-5.67l-1.125-1.298v1.298H6.188l-.557-1.298H4.145l-.553 1.298H1zm.01 2.597 2.83-6.166h2.145l2.827 6.166H6.929l-.519-1.235H3.375l-.522 1.235zm4.802-2.573-.925-2.158-.928 2.158zm3.195 2.572v-6.166l2.618.01 1.522 3.975 1.486-3.985h2.597v6.166h-1.645v-4.543l-1.743 4.543H12.4l-1.749-4.543v4.543zm9.348 0v-6.166h5.367v1.38h-3.705v1.054h3.618v1.298h-3.618v1.095h3.705v1.339zm6.319.001v-6.166h3.66c1.213 0 2.3.703 2.3 2 0 1.11-.917 1.824-1.805 1.894l2.164 2.272h-2.01l-1.972-2.19h-.692v2.19zm3.525-4.787h-1.88v1.299h1.904c.33 0 .755-.24.755-.65 0-.318-.328-.648-.78-.648zm4.785 4.786h-1.68v-6.166h1.68zm3.981 0h-.362c-1.754 0-2.819-1.295-2.819-3.058 0-1.806 1.053-3.108 3.268-3.108h1.818v1.46h-1.884c-.9 0-1.535.658-1.535 1.664 0 1.194.727 1.695 1.774 1.695h.433zm.75.001 2.83-6.166h2.144l2.827 6.166h-1.883l-.52-1.235H40.08l-.522 1.235zm4.801-2.573-.925-2.158-.928 2.158zm3.192 2.572v-6.166h2.09l2.67 3.874v-3.874h1.645v6.166H50.09l-2.737-3.975v3.975zm-32.72 10.79v-6.166h5.367v1.38H14.65v1.054h3.619v1.298H14.65V26.5h3.705v1.34zm26.297 0v-6.166h5.367v1.38h-3.705v1.054h3.601v1.298h-3.6V26.5h3.704v1.34zm-20.721 0 2.613-3.045-2.676-3.12h2.072l1.594 1.929 1.598-1.93h1.991l-2.64 3.083 2.618 3.083h-2.072l-1.547-1.899-1.51 1.9zm7.365.001v-6.166h3.633c1.49 0 2.361.9 2.361 2.074 0 1.417-1.11 2.145-2.575 2.145h-1.731v1.947zm3.511-4.771h-1.823v1.42h1.818c.48 0 .817-.299.817-.71 0-.438-.339-.71-.812-.71zm3.198 4.77v-6.166h3.66c1.212 0 2.299.703 2.299 2 0 1.11-.916 1.824-1.805 1.895l2.164 2.271h-2.01l-1.971-2.19h-.693v2.19zm3.524-4.786h-1.88v1.298h1.904c.33 0 .755-.24.755-.65 0-.318-.328-.648-.779-.648zm9.252 4.786v-1.338h3.291c.487 0 .698-.247.698-.518 0-.259-.21-.521-.698-.521h-1.487c-1.293 0-2.013-.738-2.013-1.847 0-.988.66-1.942 2.58-1.942h3.203l-.692 1.388h-2.77c-.53 0-.693.26-.693.509 0 .255.202.537.606.537h1.558c1.441 0 2.067.766 2.067 1.77 0 1.079-.697 1.962-2.145 1.962zm5.795 0v-1.338H54.5c.487 0 .698-.247.698-.518 0-.259-.21-.521-.698-.521h-1.487c-1.293 0-2.013-.738-2.013-1.847 0-.988.66-1.942 2.58-1.942h3.203l-.692 1.388h-2.77c-.53 0-.693.26-.693.509 0 .255.202.537.606.537h1.558c1.442 0 2.067.766 2.067 1.77 0 1.079-.697 1.962-2.145 1.962z" fill="#fff"/></g><g><g transform="matrix(1.61854 0 0 1.61854 439.026 241.944)"><path style="fill:#fff" d="M174 108.3c0 14-11.4 25.4-25.4 25.4H10.4V33.1c0-14 11.4-25.4 25.4-25.4H174z"/><linearGradient gradientTransform="translate(-11.976 -13.861) scale(1.125)" y2="81.399" x2="157.33" y1="81.399" x1="117.386" gradientUnits="userSpaceOnUse" id="a"><stop style="stop-color:#007940" offset="0"/><stop style="stop-color:#00873f" offset=".229"/><stop style="stop-color:#40a737" offset=".743"/><stop style="stop-color:#5cb531" offset="1"/></linearGradient><path style="fill:url(#a)" d="M129 82.5h10.5c.3 0 1-.1 1.3-.1 2-.4 3.7-2.2 3.7-4.7 0-2.4-1.7-4.2-3.7-4.7-.3-.1-.9-.1-1.3-.1H129z"/><linearGradient gradientTransform="translate(-11.976 -13.861) scale(1.125)" y2="75.171" x2="157.332" y1="75.171" x1="117.384" gradientUnits="userSpaceOnUse" id="b"><stop style="stop-color:#007940" offset="0"/><stop style="stop-color:#00873f" offset=".229"/><stop style="stop-color:#40a737" offset=".743"/><stop style="stop-color:#5cb531" offset="1"/></linearGradient><path style="fill:url(#b)" d="M138.3 16.2c-10 0-18.2 8.1-18.2 18.2v18.9h25.7c.6 0 1.3 0 1.8.1 5.8.3 10.1 3.3 10.1 8.5 0 4.1-2.9 7.6-8.3 8.3v.2c5.9.4 10.4 3.7 10.4 8.8 0 5.5-5 9.1-11.6 9.1H120v37h26.7c10 0 18.2-8.1 18.2-18.2V16.2z"/><linearGradient gradientTransform="translate(-11.976 -13.861) scale(1.125)" y2="68.399" x2="157.331" y1="68.399" x1="117.385" gradientUnits="userSpaceOnUse" id="c"><stop style="stop-color:#007940" offset="0"/><stop style="stop-color:#00873f" offset=".229"/><stop style="stop-color:#40a737" offset=".743"/><stop style="stop-color:#5cb531" offset="1"/></linearGradient><path style="fill:url(#c)" d="M143.2 63.1c0-2.4-1.7-4-3.7-4.3-.2 0-.7-.1-1-.1H129v8.8h9.5c.3 0 .9 0 1-.1 2-.3 3.7-1.9 3.7-4.3z"/><linearGradient gradientTransform="translate(-11.976 -13.861) scale(1.125)" y2="75.171" x2="68.522" y1="75.171" x1="27.959" gradientUnits="userSpaceOnUse" id="d"><stop style="stop-color:#1f286f" offset="0"/><stop style="stop-color:#004e94" offset=".475"/><stop style="stop-color:#0066b1" offset=".826"/><stop style="stop-color:#006fbc" offset="1"/></linearGradient><path style="fill:url(#d)" d="M37.7 16.2c-10 0-18.2 8.1-18.2 18.2v44.9c5.1 2.5 10.4 4.1 15.7 4.1 6.3 0 9.7-3.8 9.7-9V53.2h15.6v21.1c0 8.2-5.1 14.9-22.4 14.9-10.5 0-18.7-2.3-18.7-2.3v38.3h26.7c10 0 18.2-8.1 18.2-18.2V16.2z"/><linearGradient gradientTransform="translate(-11.976 -13.861) scale(1.125)" y2="75.171" x2="111.855" y1="75.171" x1="72.46" gradientUnits="userSpaceOnUse" id="e"><stop style="stop-color:#6c2c2f" offset="0"/><stop style="stop-color:#882730" offset=".173"/><stop style="stop-color:#be1833" offset=".573"/><stop style="stop-color:#dc0436" offset=".859"/><stop style="stop-color:#e60039" offset="1"/></linearGradient><path style="fill:url(#e)" d="M88 16.2c-10 0-18.2 8.1-18.2 18.2v23.8c4.6-3.9 12.6-6.4 25.5-5.8 6.9.3 14.3 2.2 14.3 2.2v7.7c-3.7-1.9-8.1-3.6-13.8-4-9.8-.7-15.7 4.1-15.7 12.5 0 8.5 5.9 13.3 15.7 12.5 5.7-.4 10.1-2.2 13.8-4V87s-7.3 1.9-14.3 2.2c-12.9.6-20.9-1.9-25.5-5.8v42h26.7c10 0 18.2-8.1 18.2-18.2v-91z"/></g></g></svg>