<svg width="140" height="80" fill="none" xmlns="http://www.w3.org/2000/svg"><path d="M28.568 43.863c1.465 4.738 5.994 8.193 11.354 8.193 6.545 0 11.851-5.149 11.851-11.5 0-6.35-5.306-11.5-11.851-11.5-6.281 0-11.42 4.741-11.826 10.736.768 1.25 1.066 2.023.472 4.071z" fill="url(#a)" style="fill:url(#a)" transform="matrix(1.27424 0 0 1.27424 -19.305 -11.678)"/><path d="m30.786 36.33.002.072-3.696 5.209a4.254 4.254 0 0 0-2.475.67l-8.115-3.246s-.188 2.998.594 5.232l5.737 2.296a4.078 4.078 0 0 0 2.474 2.872 4.31 4.31 0 0 0 3.205.004 4.132 4.132 0 0 0 2.271-2.194c.228-.53.338-1.1.323-1.674l5.282-3.666.13.002c3.164 0 5.736-2.503 5.736-5.577 0-3.075-2.567-5.569-5.736-5.575-3.163 0-5.736 2.5-5.736 5.575zM29.9 46.885c-.686 1.603-2.58 2.357-4.225 1.692a3.188 3.188 0 0 1-1.663-1.54l1.867.75a2.438 2.438 0 0 0 2.594-.496c.221-.214.397-.468.517-.748a2.249 2.249 0 0 0 .004-1.769 2.348 2.348 0 0 0-1.286-1.254l-1.935-.776a3.303 3.303 0 0 1 2.384.035 3.146 3.146 0 0 1 1.744 1.704c.328.775.327 1.63-.005 2.402m6.628-6.84a3.892 3.892 0 0 1-2.702-1.09 3.663 3.663 0 0 1-1.12-2.624 3.663 3.663 0 0 1 1.12-2.624 3.892 3.892 0 0 1 5.404 0 3.663 3.663 0 0 1 1.12 2.624c0 .984-.403 1.927-1.12 2.624a3.892 3.892 0 0 1-2.702 1.09zm-2.864-3.72c0-.74.301-1.449.84-1.972a2.919 2.919 0 0 1 2.03-.82c1.583 0 2.87 1.25 2.87 2.792.001.739-.301 1.448-.84 1.971a2.92 2.92 0 0 1-2.03.819 2.92 2.92 0 0 1-2.03-.819 2.747 2.747 0 0 1-.84-1.971zM69.06 42.282c0-1.488-.92-2.361-2.25-2.778l-5.828-1.786c-.614-.198-1.023-.595-1.023-1.19v-.298c0-.893.511-1.39 1.432-1.39h3.476c.92 0 1.432.497 1.432 1.39v.595c0 .298.204.496.511.496h1.534c.307 0 .511-.198.511-.496v-.694c0-2.382-1.227-3.572-3.681-3.572h-4.09c-2.454 0-3.681 1.19-3.681 3.572v.793c0 1.489.92 2.381 2.25 2.778l5.828 1.786c.613.179 1.022.596 1.022 1.19v.497c0 .893-.511 1.39-1.431 1.39h-3.988c-.92 0-1.432-.497-1.432-1.39v-.595c0-.298-.204-.496-.511-.496h-1.534c-.307 0-.511.198-.511.496v.694c0 2.381 1.227 3.572 3.681 3.572h4.601c2.454 0 3.682-1.19 3.682-3.572zM75.503 40.595h3.477l3.067 5.557c.164.297.41.496.818.496h1.84c.41 0 .41-.298.308-.496l-3.886-6.847 3.477-6.052c.102-.198.102-.496-.307-.496h-1.84c-.41 0-.655.199-.819.496l-2.76 5.06h-3.375v-5.06c0-.297-.204-.496-.511-.496h-1.534c-.307 0-.511.199-.511.496v12.899c0 .297.204.496.511.496h1.534c.307 0 .511-.199.511-.496zM88.144 46.152c0 .297.205.496.511.496h1.534c.307 0 .511-.199.511-.496V33.253c0-.297-.204-.496-.51-.496h-1.535c-.306 0-.51.199-.51.496zM105.01 42.877l-6.443-9.624c-.204-.297-.409-.496-.818-.496h-2.045c-.306 0-.51.199-.51.496v12.899c0 .297.204.496.51.496h1.534c.307 0 .511-.199.511-.496v-9.625h.103l6.442 9.625c.204.297.409.496.818.496h2.045c.306 0 .51-.199.51-.496V33.253c0-.297-.204-.496-.51-.496h-1.534c-.307 0-.511.199-.511.496v9.624zM123.518 42.282c0-1.488-.92-2.361-2.249-2.778l-5.83-1.786c-.613-.198-1.022-.595-1.022-1.19v-.298c0-.893.511-1.39 1.431-1.39h3.478c.92 0 1.43.497 1.43 1.39v.595c0 .298.206.496.513.496h1.533c.307 0 .51-.198.51-.496v-.694c0-2.382-1.225-3.572-3.68-3.572h-4.09c-2.454 0-3.68 1.19-3.68 3.572v.793c0 1.489.92 2.381 2.248 2.778l5.829 1.786c.614.179 1.023.596 1.023 1.19v.497c0 .893-.511 1.39-1.432 1.39h-3.987c-.92 0-1.433-.497-1.433-1.39v-.595c0-.298-.204-.496-.51-.496h-1.535c-.306 0-.51.198-.51.496v.694c0 2.381 1.226 3.572 3.68 3.572h4.602c2.454 0 3.681-1.19 3.681-3.572z" fill="#fff"/><defs><linearGradient id="a" x1="39.666" y1="46.82" x2="39.666" y2="69.82" gradientUnits="userSpaceOnUse" gradientTransform="translate(.085 -17.944)"><stop stop-color="#111D2E"/><stop offset=".212" stop-color="#051839"/><stop offset=".407" stop-color="#0A1B48"/><stop offset=".581" stop-color="#132E62"/><stop offset=".738" stop-color="#144B7E"/><stop offset=".873" stop-color="#136497"/><stop offset="1" stop-color="#1387B8"/></linearGradient></defs></svg>