<svg width="800" height="400" viewBox="0 0 32 32" fill="none" xmlns="http://www.w3.org/2000/svg"><g transform="matrix(.84855 0 0 .84855 2.423 2.423)"><circle cx="16" cy="16" fill="url(#a)" r="14" style="fill:url(#a)"/><path d="M22.987 10.209c.124-.806-.642-1.441-1.358-1.127L7.365 15.345c-.514.225-.476 1.003.056 1.173l2.942.937c.562.179 1.17.086 1.66-.253l6.632-4.582c.2-.138.418.147.247.323l-4.774 4.922c-.463.477-.371 1.286.186 1.636l5.345 3.351c.6.376 1.37-.001 1.483-.726z" fill="#fff"/></g><defs><linearGradient id="a" x1="16" y1="2" x2="16" y2="30" gradientUnits="userSpaceOnUse"><stop stop-color="#37BBFE"/><stop offset="1" stop-color="#007DBB"/></linearGradient></defs></svg>