<svg width="140" height="80" viewBox="0 0 140 80" fill="none" xmlns="http://www.w3.org/2000/svg">
<path d="M34.8327 27.3578C34.8327 24.7881 36.0111 22.5091 37.84 21.0275C36.4552 19.8952 34.7214 19.2766 32.9326 19.2764C28.5531 19.2764 25.0068 22.8923 25.0068 27.3578C25.0068 31.8232 28.5531 35.4392 32.9326 35.4392C34.7916 35.4392 36.4986 34.7865 37.8503 33.6991C36.9065 32.9339 36.1457 31.9673 35.6236 30.8701C35.1015 29.7729 34.8313 28.5729 34.8327 27.3578Z" fill="#E30D17"/>
<path d="M34.8326 27.3577C34.8326 29.9274 36.011 32.2064 37.8399 33.688C38.7821 32.9244 39.5414 31.9594 40.0619 30.864C40.5824 29.7686 40.851 28.5705 40.8479 27.3577C40.8479 24.788 39.6688 22.509 37.8399 21.0273C36.8969 21.7903 36.1372 22.7551 35.6167 23.8507C35.0962 24.9463 34.8283 26.1447 34.8326 27.3577Z" fill="#EB610A"/>
<path d="M42.7585 19.2764C40.8988 19.2764 39.1918 19.9291 37.8408 21.0164C38.783 21.7802 39.5422 22.7453 40.0626 23.8409C40.583 24.9364 40.8514 26.1346 40.8481 27.3475C40.8481 29.9172 39.6697 32.1962 37.8408 33.6778C39.2323 34.8041 40.9684 35.4184 42.7585 35.4179C47.1381 35.4179 50.6843 31.8027 50.6843 27.3372C50.6843 22.8718 47.1278 19.2764 42.7585 19.2764Z" fill="#F69F00"/>
<path d="M81.8283 35.4455H77.0625L80.0591 19.2603H84.8249L81.8283 35.4455ZM73.0347 19.2603L68.4651 30.3818L67.9244 28.0013L66.3034 20.6887C66.3034 20.6887 66.1061 19.2173 64.0425 19.2173H56.5253L56.4272 19.5199C56.4272 19.5199 58.736 19.953 61.4395 21.3813L65.6144 35.4455H70.5776L78.1929 19.2603H73.0347ZM110.621 35.4455H114.993L111.161 19.2603H107.327C105.558 19.2603 105.117 20.4721 105.117 20.4721L98.041 35.4455H103.004L103.985 33.0219H110.079L110.621 35.4455ZM105.363 29.6892L107.869 23.6314L109.293 29.6892H105.363ZM98.3867 23.1565L99.0746 19.6946C99.0746 19.6946 96.962 19.002 94.7513 19.002C92.3923 19.002 86.7425 19.9111 86.7425 24.3683C86.7425 28.5659 93.3756 28.609 93.3756 30.8161C93.3756 33.0231 87.4303 32.6344 85.4649 31.2491L84.777 34.8845C84.777 34.8845 86.8896 35.7936 90.1817 35.7936C93.4247 35.7936 98.3879 34.3223 98.3879 30.2538C98.3879 26.055 91.7045 25.6662 91.7045 23.8061C91.7045 21.9016 96.3722 22.1612 98.3867 23.1565Z" fill="white"/>
<path d="M67.9244 27.9578L66.3034 20.6882C66.3034 20.6882 66.1061 19.2168 64.0425 19.2168H56.5253L56.4272 19.5194C56.4272 19.5194 60.0638 20.169 63.503 22.6775C66.8441 25.015 67.9244 27.9578 67.9244 27.9578Z" fill="#F7A823"/>
<path fill-rule="evenodd" clip-rule="evenodd" d="M55.4658 44.2125C55.9959 44.2103 57.5686 44.0634 58.2357 46.3992C58.9629 48.9739 59.6782 51.552 60.3815 54.1334H60.7813C61.8349 50.3563 62.5583 47.7786 62.9515 46.3992C63.6252 44.0391 65.3094 44.2136 65.9831 44.2136H71.1805V61.0006H65.8837V51.1073H65.5281L62.5749 61.0006H58.5891L55.6359 51.1007H55.2803V61.0006H49.9824V44.2136L55.4658 44.2125ZM78.7876 44.2136V54.1135H79.2106L82.8033 45.9729C83.5001 44.3527 84.9867 44.2136 84.9867 44.2136H90.1134V61.0006H84.7051V51.1007H84.2821L80.7601 59.2413C80.0632 60.8537 78.5071 61.0006 78.5071 61.0006H73.3804V44.2136H78.7876ZM108.805 52.1907C108.052 54.4106 105.683 56.0009 103.06 56.0009H97.387V61.0006H92.2449V52.1907H108.805Z" fill="#67C09E"/>
<path fill-rule="evenodd" clip-rule="evenodd" d="M103.307 44.2139H91.9756C92.2451 47.9512 95.3451 51.1507 98.5546 51.1507H109.164C109.775 48.044 107.667 44.2139 103.307 44.2139Z" fill="url(#paint0_linear_1251_41)"/>
<path d="M30.7349 47.8936L32.764 51.5205V53.7328L30.7372 57.3525L30.7349 47.8936Z" fill="#5B57A2"/>
<path d="M38.5259 50.2002L40.4272 49.0349L44.3184 49.0312L38.5259 52.5798V50.2002Z" fill="#D90751"/>
<path d="M38.5153 47.8719L38.526 52.6738L36.4922 51.4241V44.2461L38.5153 47.8719Z" fill="#FAB718"/>
<path d="M44.3186 49.0314L40.4273 49.035L38.5153 47.8719L36.4922 44.2461L44.3186 49.0314Z" fill="#ED6F26"/>
<path d="M38.526 57.3721V55.0424L36.4922 53.8164L36.4933 61.0015L38.526 57.3721Z" fill="#63B22F"/>
<path d="M40.4224 56.2179L32.7638 51.5205L30.7349 47.8936L44.3102 56.2132L40.4224 56.2179Z" fill="#1487C9"/>
<path d="M36.4932 61.0018L38.5256 57.3724L40.4222 56.2176L44.31 56.2129L36.4932 61.0018Z" fill="#017F36"/>
<path d="M30.7373 57.3519L36.5087 53.8165L34.5683 52.626L32.764 53.7321L30.7373 57.3519Z" fill="#984995"/>
<defs>
<linearGradient id="paint0_linear_1251_41" x1="109.267" y1="48.5774" x2="91.9756" y2="48.5774" gradientUnits="userSpaceOnUse">
<stop stop-color="#1F5CD7"/>
<stop offset="1" stop-color="#02AEFF"/>
</linearGradient>
</defs>
</svg>
