<svg class="refill-window__payment-icon" viewBox="0 0 140 80" fill="none" version="1.1" id="svg25" xml:space="preserve" xmlns:xlink="http://www.w3.org/1999/xlink" xmlns="http://www.w3.org/2000/svg"><defs id="defs25"><clipPath id="clip0_8_3245-6"><path fill="#fff" id="rect13-4" d="M0 0h70v17.539H0z"/></clipPath><clipPath id="clip1"><path fill="#fff" transform="translate(41 4)" d="M0 0h49v14H0z" id="path7-0"/></clipPath><clipPath id="clip0-4"><path fill="#fff" d="M0 0h35v22H0z" id="path8"/></clipPath><clipPath id="clip1-2"><path fill="#fff" transform="translate(41 4)" d="M0 0h49v14H0z" id="path9"/></clipPath><clipPath id="clip0"><path fill="#fff" d="M0 0h35v22H0z" id="path6-1"/></clipPath><clipPath id="clip0_8_3245"><path fill="#fff" id="rect13" d="M0 0h70v17.539H0z"/></clipPath><clipPath id="clip0-5"><path fill="#fff" d="M0 0h35v22H0z" id="path6-1-7"/></clipPath><clipPath id="clip1-9"><path fill="#fff" transform="translate(41 4)" d="M0 0h49v14H0z" id="path7-0-8"/></clipPath><clipPath id="clip0-4-1"><path fill="#fff" d="M0 0h35v22H0z" id="path8-1"/></clipPath><clipPath id="clip1-2-7"><path fill="#fff" transform="translate(41 4)" d="M0 0h49v14H0z" id="path9-2"/></clipPath><linearGradient id="paint0_linear_2654_286127" x1="39.666" y1="46.82" x2="39.666" y2="69.82" gradientUnits="userSpaceOnUse" gradientTransform="translate(7.036 -72.853)"><stop stop-color="#111D2E" id="stop19"/><stop offset=".212" stop-color="#051839" id="stop20"/><stop offset=".407" stop-color="#0A1B48" id="stop21"/><stop offset=".581" stop-color="#132E62" id="stop22"/><stop offset=".738" stop-color="#144B7E" id="stop23"/><stop offset=".873" stop-color="#136497" id="stop24"/><stop offset="1" stop-color="#1387B8" id="stop25"/></linearGradient><linearGradient id="paint0_linear" x1="70.407" y1="34.012" x2="54.75" y2="34.012" gradientUnits="userSpaceOnUse"><stop stop-color="#1F5CD7" id="stop9"/><stop offset="1" stop-color="#02AEFF" id="stop10"/></linearGradient><linearGradient xlink:href="#paint0_linear" id="linearGradient32" gradientUnits="userSpaceOnUse" x1="70.407" y1="34.012" x2="54.75" y2="34.012"/></defs><g style="fill:none" id="g25" transform="translate(25.02 17.37)"><g id="g2" transform="translate(0 .596)"><g id="g10" transform="matrix(1.04942 0 0 1.04942 -2.223 -2.576)"><g id="g18"><g id="g1" transform="matrix(1.13991 0 0 1.13991 -16.027 -.481)"><g id="g9" transform="translate(-7.367)"><g id="g3" transform="translate(23.274 3.67) scale(.61376)"><path d="M13.383 11.007c0-3.5 1.605-6.604 4.096-8.622A10.562 10.562 0 0 0 10.795 0C4.83 0 0 4.925 0 11.007s4.83 11.007 10.795 11.007c2.532 0 4.857-.889 6.698-2.37a11.102 11.102 0 0 1-4.11-8.637z" fill="#e30d17" id="path1-4"/><path d="M13.383 11.007c0 3.5 1.605 6.604 4.096 8.622a11.062 11.062 0 0 0 4.097-8.622c0-3.5-1.606-6.604-4.097-8.622a11.04 11.04 0 0 0-4.096 8.622z" fill="#eb610a" id="path2-4"/><path d="M34.239 16.948v-.325h-.125v-.084h.346v.084h-.138v.325zm.664 0v-.282l-.097.24h-.097l-.097-.24v.282h-.096v-.41h.138l.097.269.097-.268h.138v.41zM24.178 0c-2.533 0-4.858.889-6.698 2.37a11.062 11.062 0 0 1 4.096 8.623c0 3.5-1.605 6.604-4.096 8.622a10.641 10.641 0 0 0 6.698 2.37c5.965 0 10.795-4.924 10.795-11.006S30.129 0 24.178 0z" fill="#f69f00" id="path3-3"/></g><g id="g5" transform="translate(8.54 -.596)"><path d="M62.234 17.783H58.25l2.505-13.53h3.984zm-7.351-13.53-3.82 9.297-.452-1.99-1.355-6.113s-.165-1.23-1.89-1.23h-6.284L41 4.47s1.93.362 4.19 1.556l3.49 11.757h4.149l6.366-13.53zm31.42 13.53h3.655l-3.203-13.53H83.55c-1.479 0-1.848 1.013-1.848 1.013l-5.915 12.517h4.149l.82-2.026h5.094zm-4.395-4.812 2.095-5.064 1.19 5.064zM76.076 7.51l.575-2.894s-1.766-.579-3.614-.579c-1.972 0-6.695.76-6.695 4.486 0 3.509 5.545 3.545 5.545 5.39 0 1.845-4.97 1.52-6.613.362l-.575 3.039s1.766.76 4.518.76c2.711 0 6.86-1.23 6.86-4.631 0-3.51-5.587-3.835-5.587-5.39 0-1.592 3.902-1.375 5.586-.543z" fill="#fff" id="path4-1"/><path d="m50.611 11.524-1.355-6.077s-.165-1.23-1.89-1.23h-6.284L41 4.47s3.04.543 5.915 2.64c2.793 1.954 3.696 4.414 3.696 4.414z" fill="#f7a823" id="path5-6"/></g></g></g><g id="g27" transform="matrix(1.0524 0 0 1.0524 -.871 -4.17)"><g id="g8" transform="translate(-1.29)"><g id="g17"><g id="g4" transform="translate(1.29)" fill-rule="evenodd" clip-rule="evenodd"><path d="M21.692 30.06c.48-.002 1.904-.135 2.508 1.98a783.05 783.05 0 0 1 1.943 7.003h.362c.954-3.42 1.609-5.754 1.965-7.003.61-2.137 2.135-1.979 2.745-1.979h4.706v15.2h-4.796v-8.958h-.322l-2.674 8.958H24.52l-2.674-8.964h-.322v8.964h-4.797v-15.2zm21.117.001v8.964h.383l3.253-7.371c.631-1.467 1.977-1.593 1.977-1.593h4.642v15.2h-4.897v-8.964h-.383l-3.189 7.371c-.631 1.46-2.04 1.593-2.04 1.593h-4.642v-15.2zm27.18 7.223c-.682 2.01-2.827 3.45-5.202 3.45H59.65v4.527h-4.656v-7.977z" fill="#67c09e" id="path6-5"/><path d="M65.01 30.061H54.75c.244 3.384 3.051 6.281 5.957 6.281h9.606c.554-2.813-1.354-6.281-5.302-6.281z" fill="url(#paint0_linear)" id="path7-2" style="fill:url(#linearGradient32)"/></g></g></g></g></g></g></g></g><style id="style1"></style></svg>